<svg width="34" height="36" viewBox="0 0 34 36" fill="none" xmlns="http://www.w3.org/2000/svg">
<path d="M19.8652 33.0056C19.5721 33.5108 19.1515 33.9302 18.6453 34.2217C18.1392 34.5132 17.5654 34.6667 16.9813 34.6667C16.3973 34.6667 15.8234 34.5132 15.3173 34.2217C14.8112 33.9302 14.3906 33.5108 14.0975 33.0056M26.9787 11.3351C26.9787 8.68248 25.9293 6.13849 24.0537 4.2628C22.178 2.3871 19.634 1.33334 16.9813 1.33334C14.3287 1.33334 11.7847 2.3871 9.90901 4.2628C8.03331 6.13849 6.97956 8.68248 6.97956 11.3351C6.97956 20.0833 -0.812229 21.5705 1.97867 25.2917C4.76957 29.0129 29.062 29.4583 32.187 25.2917C34.9058 21.6667 26.9787 20.0833 26.9787 11.3351Z" stroke="#131214" stroke-width="1.5" stroke-linecap="round" stroke-linejoin="round"/>
</svg>
